<mxfile host="app.diagrams.net" modified="2024-01-26T13:46:38.948Z" agent="Mozilla/5.0 (Windows NT 10.0; Win64; x64) AppleWebKit/537.36 (KHTML, like Gecko) Chrome/121.0.0.0 Safari/537.36" etag="pLBfpJBNiv8UnwbJ6UQo" version="21.7.5" type="github">
  <diagram id="C5RBs43oDa-KdzZeNtuy" name="Page-1">
    <mxGraphModel dx="880" dy="472" grid="1" gridSize="10" guides="1" tooltips="1" connect="1" arrows="1" fold="1" page="1" pageScale="1" pageWidth="827" pageHeight="1169" math="0" shadow="0">
      <root>
        <mxCell id="WIyWlLk6GJQsqaUBKTNV-0" />
        <mxCell id="WIyWlLk6GJQsqaUBKTNV-1" parent="WIyWlLk6GJQsqaUBKTNV-0" />
        <mxCell id="8Gb5ZdzEIlqtEWRxT46C-9" value="" style="edgeStyle=orthogonalEdgeStyle;rounded=0;orthogonalLoop=1;jettySize=auto;html=1;" edge="1" parent="WIyWlLk6GJQsqaUBKTNV-1" source="8Gb5ZdzEIlqtEWRxT46C-7" target="8Gb5ZdzEIlqtEWRxT46C-10">
          <mxGeometry relative="1" as="geometry">
            <mxPoint x="400" y="190" as="targetPoint" />
            <Array as="points">
              <mxPoint x="315" y="180" />
              <mxPoint x="315" y="191" />
            </Array>
          </mxGeometry>
        </mxCell>
        <mxCell id="8Gb5ZdzEIlqtEWRxT46C-7" value="&lt;div style=&quot;text-align: left;&quot;&gt;&lt;br&gt;&lt;/div&gt;" style="whiteSpace=wrap;html=1;aspect=fixed;" vertex="1" parent="WIyWlLk6GJQsqaUBKTNV-1">
          <mxGeometry x="30" y="72.5" width="200" height="200" as="geometry" />
        </mxCell>
        <mxCell id="8Gb5ZdzEIlqtEWRxT46C-12" value="" style="edgeStyle=orthogonalEdgeStyle;rounded=0;orthogonalLoop=1;jettySize=auto;html=1;exitX=1;exitY=0.5;exitDx=0;exitDy=0;" edge="1" parent="WIyWlLk6GJQsqaUBKTNV-1" source="8Gb5ZdzEIlqtEWRxT46C-10">
          <mxGeometry relative="1" as="geometry">
            <mxPoint x="530" y="185" as="sourcePoint" />
            <mxPoint x="590" y="185" as="targetPoint" />
          </mxGeometry>
        </mxCell>
        <mxCell id="8Gb5ZdzEIlqtEWRxT46C-10" value="" style="whiteSpace=wrap;html=1;aspect=fixed;" vertex="1" parent="WIyWlLk6GJQsqaUBKTNV-1">
          <mxGeometry x="290" y="80" width="210" height="210" as="geometry" />
        </mxCell>
        <mxCell id="8Gb5ZdzEIlqtEWRxT46C-13" value="" style="whiteSpace=wrap;html=1;aspect=fixed;" vertex="1" parent="WIyWlLk6GJQsqaUBKTNV-1">
          <mxGeometry x="590" y="80" width="210" height="210" as="geometry" />
        </mxCell>
        <mxCell id="8Gb5ZdzEIlqtEWRxT46C-14" value="Chrome Extension" style="rounded=1;whiteSpace=wrap;html=1;" vertex="1" parent="WIyWlLk6GJQsqaUBKTNV-1">
          <mxGeometry x="60" y="90" width="140" height="30" as="geometry" />
        </mxCell>
        <mxCell id="8Gb5ZdzEIlqtEWRxT46C-15" value="Web Application" style="rounded=1;whiteSpace=wrap;html=1;" vertex="1" parent="WIyWlLk6GJQsqaUBKTNV-1">
          <mxGeometry x="320" y="90" width="140" height="30" as="geometry" />
        </mxCell>
        <mxCell id="8Gb5ZdzEIlqtEWRxT46C-16" value="Cloud Services" style="rounded=1;whiteSpace=wrap;html=1;" vertex="1" parent="WIyWlLk6GJQsqaUBKTNV-1">
          <mxGeometry x="625" y="90" width="140" height="30" as="geometry" />
        </mxCell>
        <mxCell id="8Gb5ZdzEIlqtEWRxT46C-17" value="Plasmo Framework" style="shape=parallelogram;perimeter=parallelogramPerimeter;whiteSpace=wrap;html=1;fixedSize=1;size=-260;" vertex="1" parent="WIyWlLk6GJQsqaUBKTNV-1">
          <mxGeometry x="70" y="142.5" width="120" height="107.5" as="geometry" />
        </mxCell>
        <mxCell id="8Gb5ZdzEIlqtEWRxT46C-20" value="Frontend&lt;br&gt;(hmtl,css,javascript)" style="shape=parallelogram;perimeter=parallelogramPerimeter;whiteSpace=wrap;html=1;fixedSize=1;size=-260;" vertex="1" parent="WIyWlLk6GJQsqaUBKTNV-1">
          <mxGeometry x="320" y="130" width="140" height="40" as="geometry" />
        </mxCell>
        <mxCell id="8Gb5ZdzEIlqtEWRxT46C-21" value="Backend (Typescript, Express)" style="shape=parallelogram;perimeter=parallelogramPerimeter;whiteSpace=wrap;html=1;fixedSize=1;size=-260;" vertex="1" parent="WIyWlLk6GJQsqaUBKTNV-1">
          <mxGeometry x="320" y="176.25" width="140" height="43.75" as="geometry" />
        </mxCell>
        <mxCell id="8Gb5ZdzEIlqtEWRxT46C-22" value="Database (MongoDB)" style="shape=parallelogram;perimeter=parallelogramPerimeter;whiteSpace=wrap;html=1;fixedSize=1;size=-260;" vertex="1" parent="WIyWlLk6GJQsqaUBKTNV-1">
          <mxGeometry x="325" y="232.5" width="130" height="40" as="geometry" />
        </mxCell>
        <mxCell id="8Gb5ZdzEIlqtEWRxT46C-23" value="Machine Learning models&lt;br&gt;(AWS Sagemaker)" style="shape=parallelogram;perimeter=parallelogramPerimeter;whiteSpace=wrap;html=1;fixedSize=1;size=-260;" vertex="1" parent="WIyWlLk6GJQsqaUBKTNV-1">
          <mxGeometry x="625" y="148.75" width="145" height="51.25" as="geometry" />
        </mxCell>
        <mxCell id="8Gb5ZdzEIlqtEWRxT46C-27" value="API&lt;br&gt;Requests" style="text;strokeColor=none;align=center;fillColor=none;html=1;verticalAlign=middle;whiteSpace=wrap;rounded=0;" vertex="1" parent="WIyWlLk6GJQsqaUBKTNV-1">
          <mxGeometry x="240" y="136.25" width="40" height="30" as="geometry" />
        </mxCell>
        <mxCell id="8Gb5ZdzEIlqtEWRxT46C-28" value="API&amp;nbsp;&lt;br&gt;Requests" style="text;strokeColor=none;align=center;fillColor=none;html=1;verticalAlign=middle;whiteSpace=wrap;rounded=0;" vertex="1" parent="WIyWlLk6GJQsqaUBKTNV-1">
          <mxGeometry x="510" y="146.25" width="60" height="30" as="geometry" />
        </mxCell>
        <mxCell id="8Gb5ZdzEIlqtEWRxT46C-30" value="Message Queue&lt;br&gt;(AWS SQS)" style="shape=parallelogram;perimeter=parallelogramPerimeter;whiteSpace=wrap;html=1;fixedSize=1;size=-260;" vertex="1" parent="WIyWlLk6GJQsqaUBKTNV-1">
          <mxGeometry x="620" y="210" width="145" height="51.25" as="geometry" />
        </mxCell>
      </root>
    </mxGraphModel>
  </diagram>
</mxfile>
